<svg width="299" height="47" viewBox="0 0 299 47" fill="none" xmlns="http://www.w3.org/2000/svg">
<path d="M3.30081 24.596C5.85846 28.3761 25.9793 47 25.9793 47C25.9793 47 46.1415 28.3761 48.6992 24.596C51.2568 20.8159 53.5684 13.9611 50.6174 8.21553C47.9279 2.97896 43.7707 0.440084 37.8292 0.0252901C32.685 -0.333841 27.3415 3.23483 26 4.19908C24.6585 3.23483 19.315 -0.333841 14.1708 0.0252901C8.2293 0.440084 4.07208 2.97896 1.38258 8.21553C-1.56837 13.9611 0.743166 20.8159 3.30081 24.596Z" fill="#661E1E"/>
<path d="M85.3008 24.596C87.8585 28.3761 107.979 47 107.979 47C107.979 47 128.142 28.3761 130.699 24.596C133.257 20.8159 135.568 13.9611 132.617 8.21553C129.928 2.97896 125.771 0.440084 119.829 0.0252901C114.685 -0.333841 109.341 3.23483 108 4.19908C106.659 3.23483 101.315 -0.333841 96.1708 0.0252901C90.2293 0.440084 86.0721 2.97896 83.3826 8.21553C80.4316 13.9611 82.7432 20.8159 85.3008 24.596Z" fill="#8F3737"/>
<path d="M167.301 24.596C169.858 28.3761 189.979 47 189.979 47C189.979 47 210.142 28.3761 212.699 24.596C215.257 20.8159 217.568 13.9611 214.617 8.21553C211.928 2.97896 207.771 0.440084 201.829 0.0252901C196.685 -0.333841 191.341 3.23483 190 4.19908C188.659 3.23483 183.315 -0.333841 178.171 0.0252901C172.229 0.440084 168.072 2.97896 165.383 8.21553C162.432 13.9611 164.743 20.8159 167.301 24.596Z" fill="#BF3131"/>
<path d="M249.364 24.596C251.971 28.3761 272.479 47 272.479 47C272.479 47 293.029 28.3761 295.636 24.596C298.243 20.8159 300.599 13.9611 297.591 8.21553C294.85 2.97896 290.612 0.440084 284.557 0.0252901C279.314 -0.333841 273.867 3.23483 272.5 4.19908C271.133 3.23483 265.686 -0.333841 260.443 0.0252901C254.388 0.440084 250.15 2.97896 247.409 8.21553C244.401 13.9611 246.757 20.8159 249.364 24.596Z" fill="#EC1414"/>
</svg>
